<?xml version="1.0" encoding="UTF-8"?>
<svg version="1.1" xmlns="http://www.w3.org/2000/svg" width="800" height="800">
<path d="M0 0 C264 0 528 0 800 0 C800 264 800 528 800 800 C536 800 272 800 0 800 C0 536 0 272 0 0 Z " fill="#F4F0EA" transform="translate(0,0)"/>
<path d="M0 0 C4.70588235 0.70588235 4.70588235 0.70588235 6 2 C6.48968366 7.87620393 5.16967679 11.96366636 2.9375 17.25 C2.28618938 18.85743725 1.63649841 20.46553154 0.98828125 22.07421875 C0.65521973 22.89325684 0.3221582 23.71229492 -0.02099609 24.55615234 C-1.54664229 28.36456094 -2.96581304 32.20976228 -4.375 36.0625 C-4.65802979 36.83368164 -4.94105957 37.60486328 -5.23266602 38.39941406 C-8.07699062 46.17165076 -10.87004758 53.96243598 -13.66796875 61.75146484 C-16.43166419 69.4394566 -19.23741949 77.11073337 -22.0703125 84.7734375 C-24.94974835 92.56358679 -27.8029987 100.36337017 -30.66040039 108.16162109 C-31.13687345 109.46191702 -31.61335462 110.76220997 -32.08984375 112.0625 C-32.32822464 112.71304352 -32.56660553 113.36358704 -32.81221008 114.03384399 C-34.51891485 118.69034467 -36.22946497 123.34542231 -37.94140625 128 C-40.63686142 135.32995981 -43.32378588 142.66298828 -46 150 C-46.35030273 150.9600293 -46.70060547 151.92005859 -47.06152344 152.90917969 C-47.94289213 155.33316729 -48.81720314 157.75951926 -49.6875 160.1875 C-49.93153564 160.85821533 -50.17557129 161.52893066 -50.42700195 162.2199707 C-51.40477914 164.97404925 -52 167.04812122 -52 170 C-51.42554736 170.00331015 -50.85109472 170.00662029 -50.25923443 170.01003075 C-36.28822792 170.0912144 -22.31733168 170.18341741 -8.34647655 170.28752708 C-1.59030107 170.33767111 5.16586217 170.38411376 11.92211914 170.421875 C18.43848559 170.45830583 24.95473089 170.50500886 31.47098351 170.55806351 C33.96092094 170.57664049 36.45088679 170.59173613 38.94086647 170.60334396 C42.42010778 170.62014981 45.89904364 170.64917136 49.37817383 170.68115234 C50.41467072 170.68331253 51.4511676 170.68547272 52.51907349 170.68769836 C53.46558273 170.69886185 54.41209198 170.71002533 55.38728333 170.7215271 C56.21044446 170.72705786 57.03360559 170.73258862 57.88171101 170.73828697 C60 171 60 171 63 173 C63.66102896 176.48462946 63.66476963 178.88021414 61.82080078 181.98632812 C60.14622407 184.15508501 58.38634898 186.20522625 56.5625 188.25 C55.26810895 189.7577093 53.97383804 191.26552175 52.6796875 192.7734375 C52.04643555 193.49885742 51.41318359 194.22427734 50.76074219 194.97167969 C48.51180107 197.56239001 46.34649728 200.20890728 44.1875 202.875 C43.48367188 203.73609375 42.77984375 204.5971875 42.0546875 205.484375 C41.37664062 206.31453125 40.69859375 207.1446875 40 208 C31.74506039 218.1068082 23.4463807 228.17734931 15.14746094 238.24804688 C6.55629297 248.67400059 -2.02919031 259.10389124 -10.54052734 269.59521484 C-15.65128667 275.89388858 -20.77910759 282.17775619 -25.9375 288.4375 C-26.51628906 289.1399585 -27.09507812 289.84241699 -27.69140625 290.56616211 C-30.66010383 294.16718899 -33.63274965 297.76489876 -36.609375 301.359375 C-42.48997216 308.46886106 -48.29745062 315.61693955 -53.95776367 322.90307617 C-57.66953033 327.64948162 -61.57685498 332.20663071 -65.52441406 336.75732422 C-68.92176609 340.69242604 -72.18581134 344.70727401 -75.375 348.8125 C-81.16942894 356.2711856 -87.17355652 363.54822987 -93.19726562 370.82226562 C-96.15740866 374.39816972 -99.11048858 377.97988204 -102.0625 381.5625 C-102.92355347 382.60700317 -102.92355347 382.60700317 -103.80200195 383.67260742 C-108.41810274 389.27838357 -113.00129074 394.91046075 -117.56274414 400.56079102 C-119.03475066 402.37977221 -120.51597167 404.19081939 -122 406 C-122.79712402 406.98637451 -122.79712402 406.98637451 -123.61035156 407.99267578 C-124.1359668 408.62931152 -124.66158203 409.26594727 -125.203125 409.921875 C-125.67395508 410.49776367 -126.14478516 411.07365234 -126.62988281 411.66699219 C-128 413 -128 413 -130.75 413.625 C-133 413 -133 413 -135 410 C-134.52039941 398.96918634 -129.29888158 387.76024282 -125.6875 377.4375 C-125.29433594 376.30763672 -124.90117187 375.17777344 -124.49609375 374.01367188 C-123.33344314 370.67482621 -122.16746847 367.33716373 -121 364 C-120.68627441 363.10297363 -120.37254883 362.20594727 -120.04931641 361.28173828 C-118.92548835 358.06981384 -117.80139977 354.85798765 -116.67358398 351.64746094 C-114.98916216 346.84761268 -113.32413208 342.04149211 -111.671875 337.23046875 C-111.27033203 336.06322266 -110.86878906 334.89597656 -110.45507812 333.69335938 C-109.67030502 331.41026744 -108.88764423 329.12644798 -108.10742188 326.84179688 C-106.67594261 322.68051993 -105.25540369 318.58124087 -103.484375 314.55078125 C-101.69783167 310.27718155 -100.41883726 305.92514746 -99.08447266 301.49267578 C-97.29923146 295.74308989 -95.23730793 290.09702011 -93.1875 284.4375 C-92.30705315 281.98315847 -91.42684643 279.52873078 -90.546875 277.07421875 C-89.32665089 273.6801846 -88.10424708 270.28704082 -86.87304688 266.89697266 C-85.88774321 264.18370419 -84.91182571 261.46722537 -83.9375 258.75 C-83.65092529 257.97197021 -83.36435059 257.19394043 -83.0690918 256.39233398 C-81.35067369 251.57302697 -80.36940156 247.11479081 -80 242 C-81.58977916 240.41022084 -83.22959495 240.86539377 -85.43467712 240.85523987 C-86.39237503 240.84834137 -87.35007294 240.84144287 -88.33679199 240.83433533 C-89.39603882 240.83172195 -90.45528564 240.82910858 -91.54663086 240.82641602 C-92.65547134 240.819729 -93.76431183 240.81304199 -94.90675354 240.80615234 C-97.32346925 240.79206445 -99.74019856 240.78018244 -102.15693474 240.77020454 C-105.97597566 240.7538586 -109.79491554 240.73062444 -113.61390686 240.70530701 C-124.47522131 240.63434788 -135.33657299 240.57428235 -146.19799805 240.52319336 C-152.83221116 240.49190432 -159.46631371 240.45022311 -166.10043526 240.40299797 C-168.6358591 240.38693164 -171.17130959 240.37463165 -173.70676994 240.36609077 C-177.24595812 240.35399656 -180.78487252 240.32987195 -184.32397461 240.30297852 C-185.3811972 240.30238937 -186.4384198 240.30180023 -187.52767944 240.30119324 C-188.96845604 240.28661575 -188.96845604 240.28661575 -190.43833923 240.27174377 C-191.27587203 240.26751184 -192.11340483 240.2632799 -192.97631741 240.25891972 C-195 240 -195 240 -197 238 C-197.61899025 234.0077968 -197.27185929 232.40016426 -194.98046875 229.02734375 C-194.06395974 227.98448923 -193.13192433 226.95514286 -192.1875 225.9375 C-191.16887134 224.78941683 -190.15065331 223.64096921 -189.1328125 222.4921875 C-188.60977539 221.91178711 -188.08673828 221.33138672 -187.54785156 220.73339844 C-185.16007319 218.05938795 -182.86486651 215.3099711 -180.5625 212.5625 C-176.69212187 207.97793254 -172.78819118 203.42303081 -168.875 198.875 C-165.38184894 194.81371255 -161.93551604 190.72481413 -158.5625 186.5625 C-154.42003621 181.45772157 -150.11880901 176.50377318 -145.79931641 171.54931641 C-141.87737896 167.04040674 -138.06960885 162.45292983 -134.30859375 157.80859375 C-131.08368678 153.88522977 -127.76424853 150.04589563 -124.44775391 146.19995117 C-121.34547582 142.59415939 -118.30526963 138.94787242 -115.3125 135.25 C-112.46541499 131.7411601 -109.54187448 128.34133363 -106.5 125 C-102.63418354 120.7529525 -98.98630747 116.36731095 -95.37109375 111.90625 C-86.61640912 101.17563161 -77.50157998 90.73498041 -68.47949219 80.22949219 C-55.2545155 64.85850787 -55.2545155 64.85850787 -42.3125 49.25 C-38.98447475 45.15942545 -35.53723307 41.20937901 -32.01171875 37.2890625 C-29.88145399 34.86511075 -27.84320591 32.38286631 -25.8125 29.875 C-20.04588016 22.76916515 -14.0191245 15.89195803 -8 9 C-7.22398437 8.10925781 -6.44796875 7.21851562 -5.6484375 6.30078125 C-1.18309859 1.18309859 -1.18309859 1.18309859 0 0 Z " fill="#FB7B15" transform="translate(453,82)"/>
<path d="M0 0 C1.0415625 -0.02835938 2.083125 -0.05671875 3.15625 -0.0859375 C4.16429688 -0.08851563 5.17234375 -0.09109375 6.2109375 -0.09375 C7.58838135 -0.10438477 7.58838135 -0.10438477 8.99365234 -0.11523438 C12.76871311 0.76741112 14.17618661 2.53662075 16.625 5.5 C17.96774237 7.79422665 19.15880381 10.00296859 20.296875 12.390625 C20.62091812 13.04838425 20.94496124 13.70614349 21.27882385 14.38383484 C22.32009089 16.50151999 23.34755808 18.6255783 24.375 20.75 C25.79674919 23.65432904 27.22478689 26.55555348 28.65234375 29.45703125 C29.17171761 30.51652733 29.17171761 30.51652733 29.70158386 31.59742737 C32.64003816 37.57718297 35.71836954 43.47402005 38.97363281 49.28808594 C41.47606436 53.85919423 43.10622335 58.53809965 44.625 63.5 C45.285 63.5 45.945 63.5 46.625 63.5 C46.95177734 62.33984375 46.95177734 62.33984375 47.28515625 61.15625 C49.10500238 56.19013927 51.57563545 51.66062339 54.0625 47 C58.77904142 38.07752968 63.36749206 29.10491773 67.79467773 20.03515625 C75.2931971 4.8318029 75.2931971 4.8318029 79.625 0.5 C83.60655336 0.04405054 87.62035129 0.17596587 91.625 0.1875 C93.30335938 0.16333008 93.30335938 0.16333008 95.015625 0.13867188 C96.61664063 0.13770508 96.61664063 0.13770508 98.25 0.13671875 C99.23226562 0.13373779 100.21453125 0.13075684 101.2265625 0.12768555 C102.01804687 0.25054932 102.80953125 0.37341309 103.625 0.5 C105.88504079 3.89006119 105.91120492 5.20968589 106.01977539 9.19873047 C106.05643814 10.37200897 106.09310089 11.54528748 106.13087463 12.75411987 C106.16116257 14.02893219 106.1914505 15.30374451 106.22265625 16.6171875 C106.26135717 17.95267284 106.30095953 19.28813234 106.34141541 20.62356567 C106.44627102 24.15644177 106.54004369 27.68952455 106.63116455 31.22277832 C106.77708816 36.79759777 106.94097016 42.37193909 107.10167885 47.94634819 C107.16018456 49.99317776 107.217019 52.04004926 107.27372742 54.08692932 C107.48922092 61.65395192 107.77871311 69.21020366 108.1796875 76.76953125 C108.69536593 86.62140882 108.74023349 96.44934778 108.6875 106.3125 C108.68245978 107.99934758 108.67790146 109.68619668 108.67382812 111.37304688 C108.66305689 115.41540354 108.64594131 119.45768377 108.625 123.5 C104.64584841 123.52886984 100.66672347 123.54675406 96.6875 123.5625 C94.98303711 123.57506836 94.98303711 123.57506836 93.24414062 123.58789062 C92.16455078 123.59111328 91.08496094 123.59433594 89.97265625 123.59765625 C88.47230835 123.60551147 88.47230835 123.60551147 86.94165039 123.61352539 C84.625 123.5 84.625 123.5 83.625 122.5 C83.44737052 120.56086623 83.33659448 118.61557802 83.25195312 116.67016602 C83.16681458 114.7967025 83.16681458 114.7967025 83.07995605 112.88539124 C83.02203941 111.50823019 82.96413778 110.13106851 82.90625 108.75390625 C82.84330612 107.3443739 82.77986319 105.93486375 82.71594238 104.52537537 C82.54794612 100.79916973 82.38517184 97.07275617 82.22393799 93.34625244 C81.96692748 87.41376496 81.70436692 81.48153343 81.43748474 75.54948235 C81.34582761 73.48813128 81.25776852 71.4266492 81.17004395 69.36512756 C80.8596817 62.38051766 80.43349166 55.44582326 79.625 48.5 C75.08292466 56.40657559 70.61689242 64.33021628 66.5625 72.5 C66.07861816 73.47501465 66.07861816 73.47501465 65.58496094 74.46972656 C63.86851813 77.94539491 62.17458217 81.43149976 60.48828125 84.921875 C60.13451416 85.64632812 59.78074707 86.37078125 59.41625977 87.1171875 C58.74158853 88.49911667 58.07366053 89.88436665 57.41381836 91.2734375 C55.60692023 94.96412303 53.94039196 98.01345603 50.625 100.5 C47.96875 101.06640625 47.96875 101.06640625 45.125 101.0625 C44.1865625 101.08441406 43.248125 101.10632813 42.28125 101.12890625 C38.4718927 100.22698489 37.72997538 98.80249089 35.625 95.5 C33.77388013 92.089237 32.06747472 88.61671146 30.375 85.125 C29.39872723 83.13984138 28.42085608 81.15546803 27.44140625 79.171875 C26.9633252 78.20314453 26.48524414 77.23441406 25.99267578 76.23632812 C23.62260561 71.49449547 21.10724696 66.83590565 18.57421875 62.1796875 C16.81479605 58.91064657 15.16021526 55.59197365 13.50317383 52.27001953 C12.96388748 51.18947296 12.42460114 50.10892639 11.86897278 48.99563599 C11.45846176 48.17207611 11.04795074 47.34851624 10.625 46.5 C10.59074669 47.90274673 10.59074669 47.90274673 10.55580139 49.33383179 C10.34030596 58.13359309 10.11985384 66.93321801 9.89450932 75.73273277 C9.77880936 80.25698516 9.66487519 84.78126784 9.55493164 89.30566406 C9.44882743 93.66941942 9.3381435 98.03303647 9.22424126 102.396595 C9.18153124 104.06396995 9.14049037 105.73138848 9.1011219 107.39884567 C9.04583161 109.7287614 8.98468536 112.05845352 8.92211914 114.38818359 C8.90701294 115.08229843 8.89190674 115.77641327 8.87634277 116.49156189 C8.73905216 121.27189568 8.73905216 121.27189568 7.625 123.5 C3.64584841 123.52886984 -0.33327653 123.54675406 -4.3125 123.5625 C-6.01696289 123.57506836 -6.01696289 123.57506836 -7.75585938 123.58789062 C-8.83544922 123.59111328 -9.91503906 123.59433594 -11.02734375 123.59765625 C-12.52769165 123.60551147 -12.52769165 123.60551147 -14.05834961 123.61352539 C-16.375 123.5 -16.375 123.5 -17.375 122.5 C-17.95844936 111.48310331 -17.18940595 100.33476703 -16.80126953 89.32226562 C-16.49966547 80.5115124 -16.2858498 71.70110664 -16.12109375 62.88671875 C-16.10035294 61.77795883 -16.07961212 60.66919891 -16.0582428 59.52684021 C-15.95620113 53.98761731 -15.85948515 48.4483393 -15.76782227 42.90893555 C-15.6628529 36.77190773 -15.52870542 30.63599032 -15.375 24.5 C-15.33971191 22.97735535 -15.33971191 22.97735535 -15.30371094 21.4239502 C-15.2294237 18.49277806 -15.13393915 15.5631117 -15.03125 12.6328125 C-15.01066528 11.75213104 -14.99008057 10.87144958 -14.96887207 9.96408081 C-14.919505 8.75040329 -14.919505 8.75040329 -14.86914062 7.51220703 C-14.84613892 6.80645538 -14.82313721 6.10070374 -14.79943848 5.37356567 C-13.22464787 -1.57790974 -5.55391257 -0.01364598 0 0 Z " fill="#FC7F17" transform="translate(89.375,531.5)"/>
<path d="M0 0 C9.67219273 7.19582427 17.75784859 16.44221865 19.87890625 28.6875 C21.25472847 43.0135218 20.2850446 58.04422838 11.18359375 69.74609375 C4.00235969 78.15125988 -3.24106018 83.2818923 -13.875 86.25 C-14.865 86.58 -15.855 86.91 -16.875 87.25 C-20.22450383 87.50583527 -23.57924791 87.4814076 -26.9375 87.5 C-27.84177734 87.520625 -28.74605469 87.54125 -29.67773438 87.5625 C-41.94941939 87.63267404 -53.07571237 83.31498434 -62.18359375 75.03125 C-72.75370369 63.89967925 -75.52924311 52.71356804 -75.41381836 37.74047852 C-75.00561288 25.1597698 -70.25880895 15.6517107 -61.875 6.25 C-61.215 6.25 -60.555 6.25 -59.875 6.25 C-59.875 5.59 -59.875 4.93 -59.875 4.25 C-44.22975148 -9.53271894 -17.47685301 -10.93423624 0 0 Z " fill="#FC7D16" transform="translate(618.875,569.75)"/>
<path d="M0 0 C4.4161699 -0.17411103 8.83146003 -0.28079762 13.25 -0.375 C15.13138672 -0.45041016 15.13138672 -0.45041016 17.05078125 -0.52734375 C26.2990377 -0.6757115 26.2990377 -0.6757115 29.7109375 2.61328125 C30.13632812 3.73089844 30.56171875 4.84851563 31 6 C31.42023438 7.03253906 31.84046875 8.06507813 32.2734375 9.12890625 C32.63695312 10.26199219 33.00046875 11.39507813 33.375 12.5625 C33.58068604 13.20034424 33.78637207 13.83818848 33.99829102 14.49536133 C36.32097517 21.80847846 38.37810011 29.20187647 40.4609375 36.5859375 C45.82028611 55.53773824 51.69994033 74.34109988 58 93 C59.74450587 90.3832412 60.43801559 88.91830516 61.2265625 85.9921875 C61.44981201 85.18241455 61.67306152 84.3726416 61.90307617 83.53833008 C62.14131104 82.65943115 62.3795459 81.78053223 62.625 80.875 C65.25486514 71.40765211 68.16377321 62.05028256 71.19580078 52.70458984 C72.92765749 47.36462584 74.61688224 42.01817618 76.21606445 36.63696289 C77.78639575 31.35476161 79.39298426 26.08363245 81 20.8125 C81.34289062 19.67619141 81.68578125 18.53988281 82.0390625 17.36914062 C85.5162363 5.98869584 85.5162363 5.98869584 88 1 C90.66178221 -0.3308911 92.68739396 -0.11268993 95.6640625 -0.09765625 C96.78554688 -0.09443359 97.90703125 -0.09121094 99.0625 -0.08789062 C100.238125 -0.07951172 101.41375 -0.07113281 102.625 -0.0625 C103.80835938 -0.05798828 104.99171875 -0.05347656 106.2109375 -0.04882812 C109.14067507 -0.03701467 112.07031272 -0.02054258 115 0 C116.20737857 4.91715087 115.25160617 8.21279862 113.5625 12.875 C113.15632446 14.04216553 113.15632446 14.04216553 112.74194336 15.23291016 C112.1508085 16.92790738 111.55430655 18.62104005 110.953125 20.3125 C109.9757792 23.0682947 109.01686221 25.82991705 108.0625 28.59375 C106.05561572 34.40073653 104.02913624 40.20075855 102 46 C101.38143484 47.77080694 100.76294277 49.5416394 100.14453125 51.3125 C98.70158839 55.44241086 97.25548169 59.57120218 95.80712891 63.69921875 C95.28553993 65.1860471 94.76435293 66.67301655 94.24365234 68.16015625 C90.89065522 77.73375711 87.45979248 87.2769966 83.97436523 96.80322266 C82.35850674 101.22766199 80.76235646 105.6564402 79.2265625 110.109375 C78.95457031 110.89570312 78.68257812 111.68203125 78.40234375 112.4921875 C77.89726543 113.9591989 77.39698751 115.42787498 76.90234375 116.8984375 C75.89689148 119.81599263 75.21242591 121.78757409 73 124 C69.92724609 124.22705078 69.92724609 124.22705078 66.0234375 124.1953125 C65.33819 124.1924826 64.6529425 124.18965271 63.94692993 124.18673706 C61.75610973 124.17553281 59.56569684 124.15042859 57.375 124.125 C55.8906309 124.11497048 54.4062554 124.10584458 52.921875 124.09765625 C49.28111739 124.07559294 45.64059844 124.04106176 42 124 C38.79954451 117.13538051 36.15396334 110.13583681 33.625 103 C33.2321582 101.90075195 32.83931641 100.80150391 32.43457031 99.66894531 C29.9435033 92.68946927 27.48184116 85.6997214 25.03442383 78.70483398 C23.20168002 73.49520333 21.22790924 68.34945023 19.17578125 63.22265625 C18.24130925 60.66139578 17.43017501 58.13614624 16.6640625 55.5234375 C14.86909681 49.4378715 12.80121789 43.45278524 10.72094727 37.4597168 C10.06497314 35.56962597 9.41236267 33.67836887 8.75976562 31.78710938 C8.33501953 30.55927734 7.91027344 29.33144531 7.47265625 28.06640625 C7.05773926 26.86516113 6.64282227 25.66391602 6.21533203 24.42626953 C5.45052768 22.27012965 4.65834744 20.1233147 3.82763672 17.99169922 C1.47603035 11.95396314 0.28120932 6.48187474 0 0 Z " fill="#FC7E16" transform="translate(437,531)"/>
<path d="M0 0 C7.94886477 6.58856797 13.32264169 14.94412811 14.9453125 25.2265625 C16.32720588 41.34122243 16.32720588 41.34122243 13.1875 46.05078125 C10.74508667 46.4115448 10.74508667 46.4115448 7.63623047 46.39135742 C6.47517792 46.39113083 5.31412537 46.39090424 4.1178894 46.39067078 C2.85953278 46.37518692 1.60117615 46.35970306 0.3046875 46.34375 C-1.62212357 46.33738274 -1.62212357 46.33738274 -3.58786011 46.33088684 C-7.00422641 46.31942805 -10.42021056 46.28995268 -13.83642578 46.2567749 C-17.32188751 46.22609587 -20.80741094 46.21238619 -24.29296875 46.19726562 C-31.13296957 46.16508346 -37.97271644 46.11387501 -44.8125 46.05078125 C-44.36325621 47.64897264 -43.90595905 49.2449016 -43.4453125 50.83984375 C-43.19152832 51.72881348 -42.93774414 52.6177832 -42.67626953 53.53369141 C-40.8994706 58.71141809 -37.70590046 61.84425871 -33 64.42578125 C-22.59577999 68.5286101 -11.46616522 66.65569308 -1.484375 62.4375 C1.20003917 61.13964318 1.20003917 61.13964318 3.41015625 59.3671875 C5.1875 58.05078125 5.1875 58.05078125 7.375 58.30078125 C9.1875 59.05078125 9.1875 59.05078125 10.1875 60.05078125 C11.72821237 75.74381033 11.72821237 75.74381033 8.71875 80.25 C6.563682 81.60546936 4.63279725 82.34922831 2.1875 83.05078125 C1.42050781 83.34597656 0.65351563 83.64117188 -0.13671875 83.9453125 C-13.25054748 88.82125221 -30.77713507 89.2967208 -43.8125 84.05078125 C-44.51117188 83.78394531 -45.20984375 83.51710938 -45.9296875 83.2421875 C-56.3501735 78.68069071 -62.69363303 70.3999033 -67.5625 60.48828125 C-69.91685133 54.0138151 -69.99456258 47.48343419 -70 40.67578125 C-70.01224609 39.8765625 -70.02449219 39.07734375 -70.03710938 38.25390625 C-70.06753094 25.72022102 -66.26566872 14.32336325 -57.5 5.11328125 C-42.0503663 -9.14990312 -17.59119543 -12.19167572 0 0 Z " fill="#FB7D16" transform="translate(277.8125,569.94921875)"/>
<path d="M0 0 C8.01249158 6.83887166 11.4933393 15.6490365 12.32922363 26.07769775 C12.42365181 29.76637072 12.42637226 33.44311775 12.390625 37.1328125 C12.38755931 38.48232817 12.38568936 39.83184702 12.38494873 41.18136597 C12.38038647 43.98334212 12.36610708 46.78502427 12.34375 49.58691406 C12.31519564 53.18383942 12.30450678 56.78053737 12.3000679 60.37756538 C12.29592489 63.15184811 12.28612129 65.92608477 12.27419281 68.70034409 C12.26572067 70.67303706 12.25922235 72.64573819 12.25274658 74.61843872 C12.24313904 75.80412445 12.23353149 76.98981018 12.22363281 78.21142578 C12.21680481 79.25968536 12.20997681 80.30794495 12.20294189 81.38796997 C12.0625 83.75 12.0625 83.75 11.0625 84.75 C9.35477642 84.83713831 7.64351351 84.85700007 5.93359375 84.84765625 C4.38188477 84.84282227 4.38188477 84.84282227 2.79882812 84.83789062 C1.71021484 84.82951172 0.62160156 84.82113281 -0.5 84.8125 C-2.1387207 84.80573242 -2.1387207 84.80573242 -3.81054688 84.79882812 C-6.51958495 84.78699826 -9.22851599 84.77051543 -11.9375 84.75 C-11.9375 82.11 -11.9375 79.47 -11.9375 76.75 C-12.5975 76.75 -13.2575 76.75 -13.9375 76.75 C-14.4325 78.235 -14.4325 78.235 -14.9375 79.75 C-16.5390625 81.06640625 -16.5390625 81.06640625 -18.5625 82.3125 C-19.21476562 82.72628906 -19.86703125 83.14007812 -20.5390625 83.56640625 C-28.98715386 87.7354155 -40.26790049 88.57075035 -49.3125 85.75 C-55.88101919 82.69520832 -62.47329089 76.94463665 -65.34375 70.20703125 C-67.41015186 61.65593406 -67.13677863 52.62907395 -62.6171875 44.96875 C-56.01397417 36.24636588 -48.68369648 32.24821179 -37.9375 30.75 C-35.84753127 30.67266151 -33.75543605 30.64199042 -31.6640625 30.65234375 C-30.51035156 30.65556641 -29.35664063 30.65878906 -28.16796875 30.66210938 C-26.97816406 30.67048828 -25.78835938 30.67886719 -24.5625 30.6875 C-22.74298828 30.69426758 -22.74298828 30.69426758 -20.88671875 30.70117188 C-17.90359493 30.71291646 -14.92057321 30.7293416 -11.9375 30.75 C-12.19412245 29.30989519 -12.46840821 27.8729313 -12.75 26.4375 C-12.90082031 25.63699219 -13.05164063 24.83648438 -13.20703125 24.01171875 C-14.42773021 20.23212143 -16.68843274 18.91604484 -19.9375 16.75 C-25.94274913 13.74737543 -37.69986381 14.95911081 -44 17 C-45.3297688 17.54281578 -46.64358761 18.12652205 -47.9375 18.75 C-48.700625 19.10964844 -49.46375 19.46929688 -50.25 19.83984375 C-52.16398301 20.77357504 -54.05372395 21.75673626 -55.9375 22.75 C-58.66448481 20.02301519 -57.61337096 12.91522161 -57.66308594 9.26977539 C-57.48093995 2.5176236 -57.48093995 2.5176236 -55.12890625 -0.8046875 C-52.43033166 -2.47132717 -49.98829283 -3.39045123 -46.9375 -4.25 C-46.04546875 -4.57613281 -45.1534375 -4.90226563 -44.234375 -5.23828125 C-29.75921568 -9.82747282 -12.50748867 -8.96028287 0 0 Z " fill="#FB7D17" transform="translate(432.9375,570.25)"/>
<path d="M0 0 C4.58300125 -0.14505993 9.16541363 -0.23399681 13.75 -0.3125 C15.70292969 -0.3753418 15.70292969 -0.3753418 17.6953125 -0.43945312 C18.94570313 -0.45556641 20.19609375 -0.47167969 21.484375 -0.48828125 C22.63647461 -0.51446533 23.78857422 -0.54064941 24.97558594 -0.56762695 C28 0 28 0 30.23681641 2.24243164 C31.792278 4.67512877 33.31679039 7.08975967 34.7265625 9.609375 C35.2009375 10.44597656 35.6753125 11.28257812 36.1640625 12.14453125 C37.14655522 13.89673084 38.12831378 15.64934226 39.109375 17.40234375 C39.58117187 18.23378906 40.05296875 19.06523438 40.5390625 19.921875 C40.96396973 20.68081055 41.38887695 21.43974609 41.82666016 22.22167969 C42.88764357 24.15226865 42.88764357 24.15226865 45 25 C45.22816406 24.34128906 45.45632813 23.68257812 45.69140625 23.00390625 C47.40805852 19.06329253 49.63657946 15.55987274 51.9375 11.9375 C52.38029297 11.23044922 52.82308594 10.52339844 53.27929688 9.79492188 C54.50387451 7.8512927 55.72728749 5.912488 57 4 C57.6185083 2.90715698 57.6185083 2.90715698 58.24951172 1.79223633 C60 0 60 0 62.91088867 -0.45410156 C64.0682251 -0.4331543 65.22556152 -0.41220703 66.41796875 -0.390625 C68.29838867 -0.37128906 68.29838867 -0.37128906 70.21679688 -0.3515625 C71.52712891 -0.31804688 72.83746094 -0.28453125 74.1875 -0.25 C75.5227601 -0.22993307 76.85804883 -0.21168262 78.19335938 -0.1953125 C81.46296146 -0.14809803 84.73112192 -0.08225184 88 0 C86.78178917 3.28945371 85.45185267 6.03355384 83.3828125 8.86328125 C82.86372314 9.57782471 82.34463379 10.29236816 81.80981445 11.02856445 C81.25382568 11.78226318 80.69783691 12.53596191 80.125 13.3125 C79.55289795 14.09778076 78.9807959 14.88306152 78.39135742 15.69213867 C75.47876623 19.67730567 72.53027335 23.63305207 69.54296875 27.5625 C68.99946777 28.27881592 68.4559668 28.99513184 67.89599609 29.7331543 C66.86427334 31.08794657 65.82708989 32.43860307 64.78369141 33.78442383 C63.47701193 35.49559449 62.22752936 37.23155314 61 39 C60.44441406 39.79277344 59.88882813 40.58554687 59.31640625 41.40234375 C58.7538723 46.02067801 61.97463216 49.16572061 64.625 52.75 C65.21659912 53.57967285 65.80819824 54.4093457 66.41772461 55.26416016 C67.6515251 56.99223546 68.89279076 58.71500291 70.14111328 60.43261719 C71.91972308 62.88912634 73.66700044 65.36435587 75.40234375 67.8515625 C80.62723232 75.47535947 80.62723232 75.47535947 86.33984375 82.7265625 C88 85 88 85 88 89 C64.84527636 91.20244575 64.84527636 91.20244575 58.96679688 87.83544922 C55.91400425 84.75550725 54.34672721 80.99093255 52.81835938 76.98535156 C51.44664215 73.65754593 49.49093049 70.71471227 47.5625 67.6875 C46.92441406 66.61886719 46.28632812 65.55023437 45.62890625 64.44921875 C44.23210064 61.90892615 44.23210064 61.90892615 42 61 C41.73574219 61.55429687 41.47148438 62.10859375 41.19921875 62.6796875 C37.33968541 70.14731878 32.3358371 77.06206944 27.48046875 83.90625 C26.29321054 85.58532757 25.14069932 87.28895102 24 89 C21.38623047 89.34057617 21.38623047 89.34057617 18.1171875 89.29296875 C16.95058594 89.28330078 15.78398438 89.27363281 14.58203125 89.26367188 C12.74705078 89.2259668 12.74705078 89.2259668 10.875 89.1875 C9.64394531 89.17396484 8.41289063 89.16042969 7.14453125 89.14648438 C4.09592157 89.11103543 1.048175 89.06162079 -2 89 C-1.21746741 84.15435694 0.79778958 81.13841755 3.75 77.3125 C4.74828466 75.9863457 5.74563918 74.65949083 6.7421875 73.33203125 C7.27038086 72.63287598 7.79857422 71.9337207 8.34277344 71.21337891 C11.23825199 67.34620027 14.05342388 63.42124445 16.875 59.5 C17.40963867 58.75919189 17.94427734 58.01838379 18.49511719 57.25512695 C19.51483031 55.84192717 20.52938442 54.42498673 21.53808594 53.00390625 C22.50994997 51.6717319 23.51901741 50.36589753 24.56347656 49.08984375 C26.20685141 47.11106512 26.20685141 47.11106512 28 44 C27.30651526 39.47483693 23.92218804 35.96032985 21.1875 32.375 C15.99374842 25.44618521 11.08164036 18.35054656 6.2409668 11.17138672 C5.71672119 10.39682129 5.19247559 9.62225586 4.65234375 8.82421875 C4.18820068 8.13416748 3.72405762 7.44411621 3.24584961 6.7331543 C1.9764 4.86877724 1.9764 4.86877724 0 3 C0 2.01 0 1.02 0 0 Z " fill="#FB8017" transform="translate(638,566)"/>
<path d="M0 0 C1 1 1 1 1.11352539 3.04125977 C1.10828857 3.91580811 1.10305176 4.79035645 1.09765625 5.69140625 C1.09443359 6.63564453 1.09121094 7.57988281 1.08789062 8.55273438 C1.07532227 10.04256836 1.07532227 10.04256836 1.0625 11.5625 C1.05798828 12.55958984 1.05347656 13.55667969 1.04882812 14.58398438 C1.03700007 17.05604849 1.02051849 19.52799518 1 22 C1.60062256 21.99476318 2.20124512 21.98952637 2.82006836 21.98413086 C5.52586838 21.96341986 8.23165177 21.95035875 10.9375 21.9375 C11.88302734 21.92912109 12.82855469 21.92074219 13.80273438 21.91210938 C15.15141602 21.90727539 15.15141602 21.90727539 16.52734375 21.90234375 C17.77632446 21.89448853 17.77632446 21.89448853 19.05053711 21.88647461 C21 22 21 22 22 23 C22.07325168 25.86267567 22.09238205 28.700719 22.0625 31.5625 C22.05798828 32.36880859 22.05347656 33.17511719 22.04882812 34.00585938 C22.03700518 36.00393756 22.01906914 38.00197783 22 40 C19.65147472 41.17426264 18.26225935 41.11508173 15.6484375 41.09765625 C14.37226563 41.09282227 14.37226563 41.09282227 13.0703125 41.08789062 C12.18085938 41.07951172 11.29140625 41.07113281 10.375 41.0625 C9.02921875 41.05573242 9.02921875 41.05573242 7.65625 41.04882812 C5.43743352 41.03702591 3.21874982 41.02056155 1 41 C1.06891281 47.1751207 1.15689828 53.34956662 1.26245117 59.52416992 C1.29567422 61.62402861 1.3237143 63.72397603 1.34643555 65.82397461 C1.38002936 68.84527344 1.43234834 71.86576101 1.48828125 74.88671875 C1.49467117 75.82335861 1.5010611 76.75999847 1.50764465 77.72502136 C1.61702076 82.59057461 1.76957227 86.0853652 5 90 C9.89668777 92.44834389 16.91804788 90.72599316 22 90 C22 96.6 22 103.2 22 110 C11.66882862 113.81458635 0.23574377 115.06003267 -10.20703125 110.84765625 C-15.63128694 108.28324779 -19.49240751 105.7238503 -21.82905579 99.95217896 C-24.02991331 93.15517572 -24.39644096 86.97712479 -24.29296875 79.8671875 C-24.28872391 78.74933868 -24.28447906 77.63148987 -24.28010559 76.47976685 C-24.26344759 72.94458906 -24.22581916 69.41000257 -24.1875 65.875 C-24.17243654 63.46354996 -24.15875106 61.05209089 -24.14648438 58.640625 C-24.11358638 52.76021834 -24.06351704 46.88015144 -24 41 C-25.49853516 41.01740234 -25.49853516 41.01740234 -27.02734375 41.03515625 C-28.31769531 41.04417969 -29.60804688 41.05320312 -30.9375 41.0625 C-32.22527344 41.07410156 -33.51304687 41.08570313 -34.83984375 41.09765625 C-38 41 -38 41 -39 40 C-39.12658222 37.34177343 -39.18520214 34.72112576 -39.1875 32.0625 C-39.19974609 31.32064453 -39.21199219 30.57878906 -39.22460938 29.81445312 C-39.22988478 27.87486371 -39.12188902 25.9357629 -39 24 C-37 22 -37 22 -33.9609375 21.8046875 C-32.18589844 21.83949219 -32.18589844 21.83949219 -30.375 21.875 C-28.59222656 21.90207031 -28.59222656 21.90207031 -26.7734375 21.9296875 C-25.85820312 21.95289063 -24.94296875 21.97609375 -24 22 C-24.03480469 20.73542969 -24.06960938 19.47085938 -24.10546875 18.16796875 C-24.13360677 16.50782577 -24.16090691 14.84766844 -24.1875 13.1875 C-24.21263672 12.35412109 -24.23777344 11.52074219 -24.26367188 10.66210938 C-24.27333984 9.85966797 -24.28300781 9.05722656 -24.29296875 8.23046875 C-24.31653442 7.12288208 -24.31653442 7.12288208 -24.34057617 5.99291992 C-23.90130334 3.42246535 -23.04218735 2.57533291 -21 1 C-14.23235338 -0.65431362 -6.91873568 -0.31533112 0 0 Z " fill="#FB7D16" transform="translate(337,544)"/>
<path d="M0 0 C5.17729312 3.10052582 9.33127264 7.3519823 11.51171875 13.0546875 C13.51226219 22.85735034 13.660563 33.31929262 8.76171875 42.2421875 C4.50954991 47.55739855 -0.1401089 51.49572962 -7.1015625 52.390625 C-13.36322939 52.48124247 -18.50752582 52.13084183 -23.48828125 48.0546875 C-30.17733333 40.33769646 -32.00113464 32.46760126 -31.79296875 22.40625 C-31.1151943 14.95073109 -29.11091449 9.07983139 -23.48828125 3.9921875 C-16.63383102 -1.48334012 -8.48258887 -3.22258478 0 0 Z " fill="#F3EFE8" transform="translate(600.48828125,584.9453125)"/>
<path d="M0 0 C1.31194336 0.02030273 1.31194336 0.02030273 2.65039062 0.04101562 C4.78803086 0.07605891 6.92534984 0.12985459 9.0625 0.1875 C9.4356287 7.82972852 9.4688316 13.69733561 4.6875 20 C-0.8640281 24.05688592 -7.35683925 23.93449392 -13.9375 23.1875 C-17.13413711 21.91365213 -19.36130379 20.33989242 -20.9375 17.1875 C-21.46704417 12.76884453 -21.52462449 9.26780907 -19.375 5.3125 C-13.37113988 0.07836554 -7.62854736 -0.22624589 0 0 Z " fill="#F2EEE7" transform="translate(411.9375,615.8125)"/>
<path d="M0 0 C5.10049849 2.84027759 8.10660804 6.69757745 9.75 12.3125 C9.75 14.2925 9.75 16.2725 9.75 18.3125 C-1.8 18.3125 -13.35 18.3125 -25.25 18.3125 C-25.25 10.95957256 -24.56497954 8.72092122 -20.25 3.3125 C-14.24874188 -2.26009683 -7.45002405 -3.45346909 0 0 Z " fill="#F3EBE3" transform="translate(259.25,582.6875)"/>
</svg>
