<?xml version="1.0" encoding="UTF-8"?>
<svg viewBox="0 0 32 32" xmlns="http://www.w3.org/2000/svg">
<path d="M2.667 0c3.276.565 4.929.873 7.167 3.417 2.184 2.283 2.184 2.283 6.084 2.5 4.955-.708 6.136-2.299 9.416-5.917h1.333c1.245 5.812.748 10.184 0 16l1.333 1.333c.055 2.665.057 5.333 0 8-1.897.907-1.897.907-3.833 1.833-4.171 1.904-4.171 1.904-6.834 4.834-5.167.689-7.303.504-11.583-2.584-1.016-.907-2.035-1.813-3.083-2.75L1.333 25.333C1.167 17.667 1.167 17.667 2.667 14.667c-.341-2.682-.685-5.365-1.138-8.043C1.333 4 1.333 4 2.667 0z" fill="currentColor"/>
</svg>
