<?xml version="1.0" encoding="UTF-8"?>
<svg viewBox="0 0 24 24" xmlns="http://www.w3.org/2000/svg">
<path d="M2 0c2.457.424 3.697.655 5.375 2.563 1.638 1.712 1.638 1.712 4.563 1.875 3.716-.531 4.602-1.724 7.062-4.438H20c.934 4.359.811 7.638 0 12l1 1c.041 1.999.043 4 0 6-1.423.68-1.423.68-2.875 1.375-3.128 1.428-3.128 1.428-5.125 3.625-3.875.517-5.477.378-8.688-1.938-.762-.68-1.526-1.36-2.312-2.062L1 19C.875 13.25.875 13.25 2 11 1.744 8.987 1.485 6.974 1.156 4.973 1 3 1 3 2 0z" fill="currentColor"/>
</svg>
